<svg xmlns="http://www.w3.org/2000/svg" width="162" height="194"><style>text{font:24px monospace}</style><defs><linearGradient id="0" gradientTransform="rotate(90)"><stop stop-color="#4f4f4f" offset="0"/><stop stop-color="#212121" offset="1"/></linearGradient><linearGradient id="1" gradientTransform="rotate(90)"><stop stop-color="#ffec8e" offset="0"/><stop stop-color="#d1ab00" offset="1"/></linearGradient><linearGradient id="2" gradientTransform="rotate(90)"><stop stop-color="#8eff97" offset="0"/><stop stop-color="#00d10e" offset="1"/></linearGradient></defs><rect fill="#000" width="162" height="194"/><rect fill="url(#0)" x="2" y="2" rx="5" width="30" height="30"/><text fill="#fff" x="10.6" y="25">о</text><rect fill="url(#1)" x="34" y="2" rx="5" width="30" height="30"/><text fill="#fff" x="42.6" y="25">п</text><rect fill="url(#0)" x="66" y="2" rx="5" width="30" height="30"/><text fill="#fff" x="74.6" y="25">е</text><rect fill="url(#1)" x="98" y="2" rx="5" width="30" height="30"/><text fill="#fff" x="106.6" y="25">р</text><rect fill="url(#1)" x="130" y="2" rx="5" width="30" height="30"/><text fill="#fff" x="138.6" y="25">а</text><rect fill="url(#0)" x="2" y="34" opacity="0.3" rx="5" width="30" height="30"/><text fill="#fff" x="10.6" y="57"> </text><rect fill="url(#0)" x="34" y="34" opacity="0.3" rx="5" width="30" height="30"/><text fill="#fff" x="42.6" y="57"> </text><rect fill="url(#0)" x="66" y="34" opacity="0.3" rx="5" width="30" height="30"/><text fill="#fff" x="74.6" y="57"> </text><rect fill="url(#0)" x="98" y="34" opacity="0.3" rx="5" width="30" height="30"/><text fill="#fff" x="106.6" y="57"> </text><rect fill="url(#0)" x="130" y="34" opacity="0.3" rx="5" width="30" height="30"/><text fill="#fff" x="138.6" y="57"> </text><rect fill="url(#0)" x="2" y="66" opacity="0.3" rx="5" width="30" height="30"/><text fill="#fff" x="10.6" y="89"> </text><rect fill="url(#0)" x="34" y="66" opacity="0.3" rx="5" width="30" height="30"/><text fill="#fff" x="42.6" y="89"> </text><rect fill="url(#0)" x="66" y="66" opacity="0.3" rx="5" width="30" height="30"/><text fill="#fff" x="74.6" y="89"> </text><rect fill="url(#0)" x="98" y="66" opacity="0.3" rx="5" width="30" height="30"/><text fill="#fff" x="106.6" y="89"> </text><rect fill="url(#0)" x="130" y="66" opacity="0.3" rx="5" width="30" height="30"/><text fill="#fff" x="138.6" y="89"> </text><rect fill="url(#0)" x="2" y="98" opacity="0.3" rx="5" width="30" height="30"/><text fill="#fff" x="10.6" y="121"> </text><rect fill="url(#0)" x="34" y="98" opacity="0.3" rx="5" width="30" height="30"/><text fill="#fff" x="42.6" y="121"> </text><rect fill="url(#0)" x="66" y="98" opacity="0.3" rx="5" width="30" height="30"/><text fill="#fff" x="74.6" y="121"> </text><rect fill="url(#0)" x="98" y="98" opacity="0.3" rx="5" width="30" height="30"/><text fill="#fff" x="106.6" y="121"> </text><rect fill="url(#0)" x="130" y="98" opacity="0.3" rx="5" width="30" height="30"/><text fill="#fff" x="138.6" y="121"> </text><rect fill="url(#0)" x="2" y="130" opacity="0.3" rx="5" width="30" height="30"/><text fill="#fff" x="10.6" y="153"> </text><rect fill="url(#0)" x="34" y="130" opacity="0.3" rx="5" width="30" height="30"/><text fill="#fff" x="42.6" y="153"> </text><rect fill="url(#0)" x="66" y="130" opacity="0.3" rx="5" width="30" height="30"/><text fill="#fff" x="74.6" y="153"> </text><rect fill="url(#0)" x="98" y="130" opacity="0.3" rx="5" width="30" height="30"/><text fill="#fff" x="106.6" y="153"> </text><rect fill="url(#0)" x="130" y="130" opacity="0.3" rx="5" width="30" height="30"/><text fill="#fff" x="138.6" y="153"> </text><rect fill="url(#0)" x="2" y="162" opacity="0.3" rx="5" width="30" height="30"/><text fill="#fff" x="10.6" y="185"> </text><rect fill="url(#0)" x="34" y="162" opacity="0.3" rx="5" width="30" height="30"/><text fill="#fff" x="42.6" y="185"> </text><rect fill="url(#0)" x="66" y="162" opacity="0.3" rx="5" width="30" height="30"/><text fill="#fff" x="74.6" y="185"> </text><rect fill="url(#0)" x="98" y="162" opacity="0.3" rx="5" width="30" height="30"/><text fill="#fff" x="106.6" y="185"> </text><rect fill="url(#0)" x="130" y="162" opacity="0.3" rx="5" width="30" height="30"/><text fill="#fff" x="138.6" y="185"> </text></svg>